<svg width="150" height="150" viewBox="0 0 150 150" fill="none" xmlns="http://www.w3.org/2000/svg">
<path d="M0 12C0 5.37258 5.37258 0 12 0H138C144.627 0 150 5.37258 150 12V138C150 144.627 144.627 150 138 150H12C5.37258 150 0 144.627 0 138V12Z" fill="white"/>
<path fill-rule="evenodd" clip-rule="evenodd" d="M138 4H12C7.58172 4 4 7.58172 4 12V138C4 142.418 7.58172 146 12 146H138C142.418 146 146 142.418 146 138V12C146 7.58172 142.418 4 138 4ZM12 0C5.37258 0 0 5.37258 0 12V138C0 144.627 5.37258 150 12 150H138C144.627 150 150 144.627 150 138V12C150 5.37258 144.627 0 138 0H12Z" fill="#BE185D"/>
<path d="M46.8494 32.4247C46.8494 40.3913 40.3913 46.8494 32.4247 46.8494C24.4582 46.8494 18 40.3913 18 32.4247C18 24.4582 24.4582 18 32.4247 18C40.3913 18 46.8494 24.4582 46.8494 32.4247Z" fill="#BE185D"/>
<path d="M75.2982 60.4728C83.486 60.4728 90.1236 67.1104 90.1236 75.2982C90.1236 83.486 83.486 90.1236 75.2982 90.1236C67.1103 90.1236 60.4728 83.486 60.4728 75.2982C60.4728 67.1104 67.1103 60.4728 75.2982 60.4728Z" fill="#BE185D"/>
<path d="M118.172 103.747C126.138 103.747 132.596 110.205 132.596 118.172C132.596 126.138 126.138 132.596 118.172 132.596C110.205 132.596 103.747 126.138 103.747 118.172C103.747 110.205 110.205 103.747 118.172 103.747Z" fill="#BE185D"/>
</svg>
