<svg width="150" height="150" viewBox="0 0 150 150" fill="none" xmlns="http://www.w3.org/2000/svg">
<path d="M0 12C0 5.37258 5.37258 0 12 0H138C144.627 0 150 5.37258 150 12V138C150 144.627 144.627 150 138 150H12C5.37258 150 0 144.627 0 138V12Z" fill="white"/>
<path fill-rule="evenodd" clip-rule="evenodd" d="M138 4H12C7.58172 4 4 7.58172 4 12V138C4 142.418 7.58172 146 12 146H138C142.418 146 146 142.418 146 138V12C146 7.58172 142.418 4 138 4ZM12 0C5.37258 0 0 5.37258 0 12V138C0 144.627 5.37258 150 12 150H138C144.627 150 150 144.627 150 138V12C150 5.37258 144.627 0 138 0H12Z" fill="#BE185D"/>
<path d="M46.8494 32.4247C46.8494 40.3913 40.3913 46.8494 32.4247 46.8494C24.4582 46.8494 18 40.3913 18 32.4247C18 24.4582 24.4582 18 32.4247 18C40.3913 18 46.8494 24.4582 46.8494 32.4247Z" fill="#BE185D"/>
<path d="M32.4247 60.4728C40.3913 60.4728 46.8494 67.1104 46.8494 75.2982C46.8494 83.486 40.3913 90.1236 32.4247 90.1236C24.4582 90.1236 18 83.486 18 75.2982C18 67.1104 24.4582 60.4728 32.4247 60.4728Z" fill="#BE185D"/>
<path d="M32.4247 103.747C40.3913 103.747 46.8494 110.205 46.8494 118.172C46.8494 126.138 40.3913 132.596 32.4247 132.596C24.4582 132.596 18 126.138 18 118.172C18 110.205 24.4582 103.747 32.4247 103.747Z" fill="#BE185D"/>
<path d="M118.172 18C126.138 18 132.596 24.4582 132.596 32.4247C132.596 40.3913 126.138 46.8494 118.172 46.8494C110.205 46.8494 103.747 40.3913 103.747 32.4247C103.747 24.4582 110.205 18 118.172 18Z" fill="#BE185D"/>
<path d="M118.172 60.4728C126.138 60.4728 132.596 67.1104 132.596 75.2982C132.596 83.486 126.138 90.1236 118.172 90.1236C110.205 90.1236 103.747 83.486 103.747 75.2982C103.747 67.1104 110.205 60.4728 118.172 60.4728Z" fill="#BE185D"/>
<path d="M118.172 103.747C126.138 103.747 132.596 110.205 132.596 118.172C132.596 126.138 126.138 132.596 118.172 132.596C110.205 132.596 103.747 126.138 103.747 118.172C103.747 110.205 110.205 103.747 118.172 103.747Z" fill="#BE185D"/>
</svg>
