<svg width="150" height="150" viewBox="0 0 150 150" fill="none" xmlns="http://www.w3.org/2000/svg">
<path d="M0 12C0 5.37258 5.37258 0 12 0H138C144.627 0 150 5.37258 150 12V138C150 144.627 144.627 150 138 150H12C5.37258 150 0 144.627 0 138V12Z" fill="white"/>
<path fill-rule="evenodd" clip-rule="evenodd" d="M138 4H12C7.58172 4 4 7.58172 4 12V138C4 142.418 7.58172 146 12 146H138C142.418 146 146 142.418 146 138V12C146 7.58172 142.418 4 138 4ZM12 0C5.37258 0 0 5.37258 0 12V138C0 144.627 5.37258 150 12 150H138C144.627 150 150 144.627 150 138V12C150 5.37258 144.627 0 138 0H12Z" fill="#BE185D"/>
<path d="M75.2982 60.4728C83.486 60.4728 90.1236 67.1104 90.1236 75.2982C90.1236 83.486 83.486 90.1236 75.2982 90.1236C67.1103 90.1236 60.4728 83.486 60.4728 75.2982C60.4728 67.1104 67.1103 60.4728 75.2982 60.4728Z" fill="#BE185D"/>
</svg>
